<svg xmlns="http://www.w3.org/2000/svg" xmlns:xlink="http://www.w3.org/1999/xlink" viewBox="0,0,256,256" width="50px" height="50px"><g fill="none" fill-rule="nonzero" stroke="none" stroke-width="1" stroke-linecap="butt" stroke-linejoin="none" stroke-miterlimit="10" stroke-dasharray="" stroke-dashoffset="0" font-family="none" font-weight="none" font-size="none" text-anchor="none" style="mix-blend-mode: normal"><path transform="scale(5.12,5.12)" d="M31.57031,1l-9.82031,9h-16.33594l4.71094,-8.48437c0.17969,-0.31641 0.51172,-0.51562 0.875,-0.51562zM44.38281,23.57031l-0.38281,0.24219l-20.28125,-12.90625l9.51172,-8.71094zM19.56641,12l-3.19531,2.92969l-8.96875,-2.92969zM36.80469,21.60938l-13.80469,-4.51562v-4.26953zM21,16.44141l-2.44922,-0.80078l2.44922,-2.23828zM21,18.54688v12.90625l-4.14062,1.35547l-8.51562,-7.80859l8.51563,-7.80859zM40.75391,25l-17.75391,5.80078v-11.60156zM44.38281,26.42969l-11.15234,21.37891l-9.51172,-8.71484l20.28125,-12.90625zM23,37.17578v-4.26953l13.80469,-4.51562zM21,36.59766l-2.44922,-2.23828l2.44922,-0.80078zM19.56641,38h-12.16406l8.96875,-2.92969zM21.75,40l9.82031,9h-20.57031c-0.36328,0 -0.69531,-0.19922 -0.875,-0.51562l-4.71094,-8.48437z" id="strokeMainSVG" fill="#5fff00" stroke="#5fff00" stroke-linejoin="round"></path><g transform="scale(5.12,5.12)" fill="#333630" stroke="none" stroke-linejoin="miter"><path d="M11,1c-0.36328,0 -0.69531,0.19922 -0.875,0.51563l-4.71094,8.48438h16.33594l9.82031,-9zM33.23047,2.19531l-9.51172,8.71094l20.28125,12.90625l0.38281,-0.24219zM7.40234,12l8.96875,2.92969l3.19531,-2.92969zM23,12.82422v4.26953l13.80469,4.51563zM21,13.40234l-2.44922,2.23828l2.44922,0.80078zM16.85938,17.19141l-8.51562,7.80859l8.51563,7.80859l4.14063,-1.35547v-12.90625zM23,19.19922v11.60156l17.75391,-5.80078zM44,26.1875l-20.28125,12.90625l9.51172,8.71484l11.15234,-21.37891zM36.80469,28.39063l-13.80469,4.51563v4.26953zM21,33.55859l-2.44922,0.80078l2.44922,2.23828zM16.37109,35.07031l-8.96875,2.92969h12.16406zM5.41406,40l4.71094,8.48438c0.17969,0.31641 0.51172,0.51563 0.875,0.51563h20.57031l-9.82031,-9z"></path></g></g></svg>